<?xml version="1.0" standalone="no"?>
<!DOCTYPE svg PUBLIC "-//W3C//DTD SVG 20010904//EN"
 "http://www.w3.org/TR/2001/REC-SVG-20010904/DTD/svg10.dtd">
<svg version="1.0" xmlns="http://www.w3.org/2000/svg"
 width="1280.000000pt" height="1266.000000pt" viewBox="0 0 1280.000000 1266.000000"
 preserveAspectRatio="xMidYMid meet">
<metadata>
Created by potrace 1.15, written by Peter Selinger 2001-2017
</metadata>
<g transform="translate(0.000000,1266.000000) scale(0.100000,-0.100000)"
fill="#000000" stroke="none">
<path d="M6295 12654 c-22 -2 -103 -9 -180 -15 -326 -25 -584 -88 -1011 -248
-266 -99 -577 -249 -738 -356 -218 -145 -367 -294 -624 -624 -351 -450 -427
-559 -522 -751 -101 -201 -143 -367 -160 -625 -18 -279 -30 -409 -45 -496 -52
-297 -72 -649 -56 -974 26 -502 96 -787 252 -1016 59 -88 173 -198 349 -339
173 -138 368 -324 437 -415 66 -87 90 -148 134 -344 21 -96 53 -216 70 -268
16 -51 29 -105 27 -120 -7 -64 -46 -39 -319 209 -448 405 -603 523 -1042 788
-592 359 -758 512 -978 906 -152 272 -210 354 -336 475 -193 185 -370 264
-588 262 -131 -2 -233 -25 -350 -82 -158 -76 -200 -137 -240 -347 -33 -170
-65 -235 -195 -389 -60 -72 -115 -150 -138 -194 -35 -70 -37 -81 -37 -165 0
-183 62 -275 365 -547 47 -42 114 -114 150 -161 68 -91 105 -122 169 -144 41
-14 219 -38 371 -49 218 -16 428 -65 604 -140 241 -103 424 -222 1241 -804
756 -538 1053 -769 1256 -978 130 -132 185 -208 308 -424 199 -348 263 -411
639 -628 79 -46 150 -93 158 -106 14 -21 14 -27 0 -53 -41 -80 -335 -298 -981
-729 -450 -300 -564 -360 -747 -397 -69 -14 -109 -19 -383 -47 -403 -40 -653
-123 -880 -291 -88 -66 -180 -162 -295 -309 -183 -235 -218 -307 -206 -422 13
-130 85 -255 226 -398 161 -162 267 -226 430 -258 49 -10 101 -26 116 -36 36
-23 58 -80 89 -225 41 -199 82 -262 210 -321 252 -116 605 -53 883 158 168
128 292 318 392 598 79 223 139 321 298 487 115 119 270 258 452 403 199 159
1376 1040 1510 1130 199 134 296 172 409 162 126 -12 179 -45 1251 -773 206
-140 521 -350 700 -466 675 -439 766 -504 897 -641 126 -132 182 -224 304
-505 74 -171 128 -266 200 -350 141 -166 302 -242 511 -242 112 0 201 20 280
62 89 47 145 116 222 273 107 215 169 266 408 329 69 18 146 45 171 59 119 70
214 250 236 450 37 329 -175 710 -474 853 -136 66 -282 93 -629 119 -230 18
-335 33 -472 70 -283 77 -717 254 -1020 416 -180 96 -328 194 -570 376 -302
227 -398 287 -715 450 -192 99 -208 109 -215 140 -9 34 19 61 226 218 333 253
451 375 531 551 48 105 62 183 62 339 0 155 -19 282 -78 516 -68 268 -63 297
67 460 49 62 98 129 108 149 54 105 69 247 51 475 -23 290 -18 343 41 437 40
64 104 109 223 156 110 44 165 84 195 142 11 21 39 105 64 186 95 317 107 404
61 449 -13 14 -33 25 -45 25 -32 0 -89 -34 -160 -95 -58 -50 -69 -56 -104 -53
-57 4 -79 39 -84 129 -8 134 33 255 117 351 63 71 123 96 262 107 132 10 173
26 250 98 175 163 261 482 237 872 -13 212 -114 815 -194 1159 -132 571 -403
1082 -764 1442 -253 253 -579 453 -1049 645 -378 154 -616 222 -915 261 -114
15 -585 27 -681 18z m320 -438 c109 -15 172 -36 182 -61 3 -9 -4 -53 -16 -97
-25 -88 -22 -121 10 -139 13 -6 115 -14 253 -19 271 -8 295 -15 366 -99 44
-52 115 -95 187 -112 21 -5 133 -22 248 -38 279 -40 359 -66 387 -127 10 -22
8 -34 -21 -90 -22 -43 -31 -73 -27 -88 6 -25 60 -107 113 -173 90 -110 199
-96 314 41 33 39 65 71 72 71 23 0 31 -76 18 -176 -56 -456 -405 -972 -740
-1097 -116 -44 -278 -34 -651 37 -298 57 -455 65 -545 27 -89 -37 -130 -101
-186 -284 -21 -71 -45 -124 -76 -170 -94 -140 -94 -148 -9 -321 77 -156 94
-233 77 -344 -13 -90 -27 -138 -45 -162 -14 -19 -17 -18 -69 36 -70 73 -127
85 -195 41 -50 -32 -98 -156 -123 -314 -15 -97 -7 -297 16 -393 10 -39 18
-117 18 -175 2 -129 -6 -155 -150 -480 -198 -444 -250 -595 -260 -748 -7 -110
6 -161 52 -201 46 -40 91 -51 215 -51 58 0 170 -7 249 -17 l144 -17 18 22 c10
13 21 44 25 70 10 64 -10 294 -48 567 -26 193 -32 262 -32 430 -1 233 0 240
99 465 35 80 80 199 100 265 20 65 41 131 48 145 30 61 61 8 77 -130 5 -41 6
-199 3 -350 -8 -349 1 -405 108 -682 102 -266 93 -350 -64 -564 -122 -167
-162 -264 -173 -417 -9 -119 -16 -137 -53 -137 -36 0 -46 12 -71 86 -11 32
-25 61 -32 65 -22 14 -66 -12 -83 -48 -16 -33 -16 -51 -7 -177 16 -197 2 -284
-50 -320 -31 -22 -65 -20 -142 9 -72 27 -96 26 -154 -8 -36 -21 -76 -20 -185
4 -47 11 -65 11 -105 0 -94 -27 -110 -26 -189 15 l-74 38 -75 -18 c-85 -20
-113 -16 -163 23 -57 44 -61 45 -156 51 l-90 5 1 55 c0 30 4 102 8 160 11 137
-2 203 -53 267 -21 27 -105 101 -188 165 -210 163 -241 207 -213 294 21 62 73
109 158 144 42 18 120 51 172 75 52 23 132 52 178 64 137 35 198 78 190 132
-7 51 -113 89 -248 89 -82 0 -71 4 -247 -94 -165 -91 -195 -111 -259 -170 -37
-33 -82 -88 -106 -128 -23 -38 -47 -72 -53 -74 -23 -9 -64 16 -206 122 -253
190 -379 334 -379 432 0 43 12 62 97 155 117 129 131 188 136 582 4 344 4 346
92 475 103 149 110 245 25 330 -53 53 -96 69 -217 81 -117 11 -139 17 -170 51
-34 36 -49 82 -77 228 -35 183 -55 238 -131 359 -35 57 -74 129 -86 160 -46
124 -62 306 -38 451 66 409 525 1035 1044 1425 439 329 876 479 1498 515 193
11 601 3 732 -14z m1289 -3100 c222 -57 519 -188 590 -260 54 -53 129 -202
157 -311 11 -44 23 -120 26 -170 5 -79 2 -100 -21 -167 -71 -212 -224 -366
-431 -435 -113 -37 -277 -39 -382 -4 -89 29 -153 80 -153 121 0 39 17 47 145
66 155 23 225 57 262 128 9 18 18 77 23 150 5 67 9 122 9 124 1 2 34 36 75 76
64 62 77 81 91 131 41 140 -20 234 -213 329 -175 87 -443 128 -637 97 -27 -5
-83 -14 -123 -21 -86 -14 -116 -9 -138 25 -33 50 3 83 123 111 219 51 426 54
597 10z m-6677 -714 c174 -55 308 -196 570 -602 173 -266 191 -291 307 -405
107 -106 212 -181 586 -416 223 -140 368 -245 525 -381 136 -118 304 -286 357
-356 151 -203 104 -325 -127 -326 -138 -1 -167 16 -383 226 -339 330 -684 608
-870 702 -116 58 -265 97 -435 112 -106 9 -113 28 -76 192 22 93 22 93 2 120
-24 32 -41 41 -163 88 -144 56 -248 124 -301 197 -36 49 -39 120 -9 217 49
160 2 245 -192 352 -212 117 -244 150 -215 220 27 65 104 89 262 83 62 -2 123
-11 162 -23z m7296 -1633 c62 -17 53 -27 -104 -114 -191 -106 -289 -191 -289
-252 0 -18 26 -52 89 -117 92 -95 109 -128 96 -186 -17 -78 -170 -250 -238
-268 -19 -5 -44 -5 -59 1 -39 13 -112 98 -149 174 -31 62 -32 66 -21 126 6 34
14 96 18 137 13 150 71 275 171 368 66 61 176 119 249 131 72 12 193 12 237 0z
m-4050 -663 c11 -126 31 -158 134 -216 26 -14 49 -37 59 -58 23 -49 44 -191
44 -302 1 -160 20 -200 125 -261 69 -40 107 -38 156 6 37 33 43 35 113 35 74
0 90 -7 78 -38 -7 -20 -52 -39 -112 -46 -30 -4 -60 -12 -67 -17 -16 -14 -37
-111 -30 -141 9 -33 50 -54 142 -71 77 -15 81 -17 130 -70 81 -89 115 -97 191
-42 113 81 133 81 188 5 20 -28 48 -55 62 -60 39 -15 89 3 140 49 24 23 48 41
54 41 19 0 54 -22 97 -61 23 -21 54 -41 70 -44 15 -4 62 -17 103 -31 51 -16
98 -24 147 -24 94 0 120 -11 140 -57 17 -42 14 -166 -7 -235 -17 -60 -70 -128
-149 -192 -97 -80 -111 -107 -111 -218 0 -143 27 -235 87 -289 15 -15 60 -45
100 -68 81 -47 147 -104 141 -123 -14 -46 -193 -74 -358 -57 -368 39 -622 222
-710 511 -53 171 -58 184 -108 230 -94 88 -254 165 -562 268 -102 33 -199 70
-216 81 -39 24 -107 97 -128 137 -47 92 -56 246 -34 609 11 183 10 219 -7 375
-10 95 -19 209 -18 253 0 92 24 186 55 217 l21 21 17 -21 c11 -13 19 -48 23
-96z m3332 -216 c26 -28 32 -113 11 -145 -18 -28 -70 -35 -79 -12 -11 28 -19
127 -13 152 5 19 13 25 35 25 15 0 36 -9 46 -20z m-169 -65 c19 -46 18 -154
-1 -182 -16 -23 -70 -43 -117 -43 -42 0 -58 24 -58 88 0 76 23 120 79 149 61
32 79 30 97 -12z m-393 -25 c57 -45 114 -210 88 -258 -25 -47 -161 -83 -175
-46 -3 9 -6 66 -6 127 0 89 4 121 20 155 21 47 35 51 73 22z m-2064 -87 c14
-28 34 -198 28 -239 -3 -19 -11 -42 -18 -50 -14 -17 -92 -19 -140 -3 -74 25
-83 55 -50 170 34 118 52 138 123 139 35 0 50 -5 57 -17z m1416 -37 c20 -21
41 -62 56 -108 21 -63 24 -92 24 -213 0 -192 -41 -355 -107 -431 -47 -53 -90
-44 -132 29 -29 50 -49 137 -44 192 l3 40 77 5 c93 6 114 21 104 73 -8 41 -20
48 -106 56 -59 5 -65 8 -74 34 -10 27 2 138 26 250 15 70 50 107 100 107 33 0
47 -6 73 -34z m388 -4 c17 -19 41 -118 52 -218 7 -55 5 -63 -18 -89 -21 -25
-33 -29 -90 -33 -127 -8 -145 11 -126 137 15 99 44 175 76 201 32 25 84 26
106 2z m1066 -60 c9 -29 11 -63 7 -105 -13 -120 -34 -114 -89 25 -31 79 -33
90 -20 108 11 16 24 20 51 18 34 -3 38 -7 51 -46z m-2544 -12 c8 -16 22 -58
30 -94 18 -76 9 -111 -30 -126 -35 -13 -104 -13 -143 1 -50 17 -52 52 -7 155
40 91 118 125 150 64z m305 20 c38 -20 83 -197 67 -262 -9 -33 -46 -48 -118
-48 -81 0 -119 20 -119 63 0 74 67 222 110 244 30 15 36 16 60 3z m348 -44
c16 -19 40 -61 53 -93 21 -51 23 -75 24 -198 0 -130 -2 -144 -26 -196 -32 -67
-91 -129 -123 -129 -46 0 -91 76 -102 174 -6 54 -6 56 20 66 15 5 58 10 95 10
77 0 100 14 82 49 -8 14 -25 22 -59 26 -85 11 -90 13 -97 44 -10 48 29 233 58
269 17 21 44 13 75 -22z m1729 -49 c9 -26 10 -56 4 -98 -15 -111 -43 -101
-100 34 -40 94 -34 110 38 105 43 -3 47 -5 58 -41z m-188 -81 c25 -54 -18
-209 -63 -226 -52 -19 -98 40 -118 151 -9 52 -8 62 7 79 19 21 49 28 115 26
39 -1 47 -5 59 -30z m-323 -111 c21 -33 15 -165 -10 -213 -32 -62 -93 -66
-131 -9 -19 30 -48 174 -40 205 7 29 36 41 107 41 51 1 59 -2 74 -24z m-380
-93 c24 -16 38 -60 37 -119 -1 -70 -23 -119 -65 -142 -23 -13 -29 -13 -53 3
-63 41 -106 219 -61 252 21 15 122 19 142 6z m-1566 -15 c50 -25 27 -129 -40
-179 -48 -35 -82 2 -94 102 -10 81 -4 90 58 90 28 0 62 -6 76 -13z m348 -33
c28 -18 29 -72 3 -129 -55 -121 -132 -86 -148 67 -5 53 -4 63 13 75 22 16 97
9 132 -13z m-147 -1809 c116 -35 328 -111 424 -153 116 -51 155 -77 155 -106
0 -58 -64 -107 -866 -664 -319 -221 -606 -427 -636 -457 -46 -44 -62 -70 -88
-137 -18 -46 -41 -95 -51 -110 -28 -38 -101 -84 -177 -109 -165 -55 -253 -114
-359 -240 -91 -109 -138 -182 -225 -353 -106 -209 -170 -268 -292 -269 -68 0
-112 18 -144 58 -21 26 -42 104 -42 152 0 61 -36 107 -132 169 -51 32 -126 87
-168 122 -125 104 -147 117 -199 116 -25 -1 -84 -14 -131 -30 -71 -24 -102
-29 -187 -29 -97 0 -103 1 -144 30 -24 17 -57 53 -74 79 -97 157 38 342 371
509 189 95 360 142 663 183 406 54 474 77 725 241 180 118 725 496 881 613
130 96 227 176 366 301 41 37 90 76 109 88 47 28 116 27 221 -4z m2313 -255
c153 -48 298 -126 881 -475 579 -347 820 -478 1165 -629 360 -159 576 -220
775 -220 86 0 125 4 181 22 80 25 195 29 272 11 77 -19 206 -84 286 -144 151
-113 223 -219 233 -343 4 -58 2 -71 -16 -93 -34 -43 -89 -50 -446 -60 -343 -8
-405 -15 -500 -58 -112 -49 -134 -95 -151 -304 -11 -139 -15 -163 -39 -202
-35 -61 -62 -76 -169 -96 -50 -10 -112 -23 -137 -30 -26 -6 -54 -9 -63 -6 -8
3 -26 42 -41 91 -26 85 -44 117 -143 252 -78 107 -93 158 -90 312 3 116 1 131
-20 170 -29 54 -80 104 -212 205 -58 45 -184 142 -280 217 -283 222 -380 285
-650 430 -196 105 -319 180 -658 401 -435 285 -492 331 -492 396 0 59 66 126
157 159 52 18 80 17 157 -6z m3478 -2105 c197 -25 231 -37 226 -83 -2 -20 -15
-33 -48 -52 -40 -22 -57 -25 -145 -24 -112 0 -187 13 -292 50 -66 24 -123 61
-123 82 0 21 30 45 66 51 47 8 86 5 316 -24z m-8397 -95 c83 -19 95 -83 45
-245 -35 -115 -37 -151 -10 -237 24 -76 25 -131 4 -152 -23 -23 -108 -21 -161
5 -72 35 -95 83 -128 265 -29 159 -63 194 -210 215 -81 11 -105 21 -105 44 0
15 20 22 190 64 176 44 303 58 375 41z"/>
<path d="M3798 10808 c-24 -21 -48 -61 -48 -83 0 -11 21 -56 46 -99 77 -131
77 -154 -2 -238 -52 -55 -64 -83 -64 -143 0 -60 13 -89 75 -171 75 -98 85
-125 85 -238 0 -52 5 -107 11 -123 6 -15 44 -62 84 -104 41 -42 79 -89 86
-105 7 -20 9 -69 4 -150 -8 -148 2 -190 56 -239 21 -19 69 -50 107 -69 89 -45
125 -76 151 -129 42 -87 26 -147 -72 -259 -89 -102 -111 -146 -115 -233 -7
-143 37 -229 289 -565 191 -256 238 -303 336 -341 110 -41 331 -36 456 11 112
43 163 115 155 223 -7 93 -27 106 -251 168 -52 14 -107 63 -90 80 10 10 36 5
130 -26 191 -62 338 -60 373 4 5 11 10 46 10 78 0 91 -34 151 -142 256 l-92
88 78 77 c62 61 86 95 122 168 25 51 52 95 60 98 48 18 177 -103 213 -199 36
-95 25 -141 -44 -202 -42 -38 -43 -63 -2 -77 59 -21 169 31 202 95 22 42 20
123 -4 210 -11 41 -27 108 -35 151 -8 42 -24 94 -35 116 -44 86 -199 193 -327
227 -123 32 -234 16 -392 -55 -49 -22 -103 -40 -118 -40 -16 0 -65 12 -109 26
-112 36 -201 30 -310 -20 -43 -20 -85 -36 -95 -36 -25 0 -48 30 -64 84 -28 93
-60 125 -228 229 -15 10 -35 28 -44 42 -15 24 -15 30 9 108 51 166 47 186 -58
297 -94 99 -120 150 -134 269 -9 70 -20 109 -45 159 -59 117 -57 143 14 233
38 48 40 55 40 117 -1 82 -30 159 -89 236 -70 90 -142 127 -183 94z"/>
<path d="M11895 8690 c-206 -20 -344 -107 -650 -414 -285 -285 -484 -528 -631
-771 -93 -153 -152 -218 -394 -434 -96 -86 -236 -212 -310 -280 -139 -127
-237 -204 -420 -329 -122 -83 -341 -264 -451 -372 -91 -91 -113 -137 -82 -179
27 -36 81 -53 128 -40 20 6 99 58 177 117 194 148 295 219 352 249 55 28 130
53 161 53 64 0 199 96 405 285 108 100 114 108 107 154 -8 65 5 80 218 254
331 271 409 365 529 644 27 62 69 144 95 183 139 209 454 499 641 589 67 32
84 36 155 36 70 0 87 -4 134 -30 64 -35 81 -57 65 -82 -6 -10 -76 -63 -157
-118 -302 -206 -364 -276 -503 -563 -114 -235 -141 -266 -313 -356 -119 -63
-151 -92 -151 -136 0 -30 17 -48 87 -94 62 -42 91 -80 74 -100 -14 -16 -21
-18 -160 -35 -144 -19 -205 -73 -234 -211 -24 -115 -35 -123 -229 -181 -189
-56 -275 -109 -569 -350 -312 -257 -343 -277 -479 -304 -110 -22 -155 -42
-218 -98 -84 -75 -116 -84 -229 -62 -70 14 -79 13 -117 -4 -101 -44 -150 -262
-111 -496 20 -122 19 -184 -6 -304 -23 -114 -20 -141 18 -177 50 -47 135 -26
238 59 28 23 128 113 222 201 202 186 300 266 518 421 174 124 266 201 516
429 345 313 666 543 930 665 148 68 260 101 536 155 207 41 293 66 374 107
153 77 176 152 79 263 -55 63 -59 75 -32 99 18 17 72 26 267 47 178 18 266 80
307 214 17 56 20 84 15 150 -9 116 -27 169 -127 361 -48 94 -111 226 -140 295
-138 332 -220 427 -406 473 -79 20 -145 25 -229 17z"/>
</g>
</svg>
